<?xml version="1.0" encoding="UTF-8"?>
<!DOCTYPE svg PUBLIC "-//W3C//DTD SVG 1.1//EN" "http://www.w3.org/Graphics/SVG/1.1/DTD/svg11.dtd">
<!-- Creator: CorelDRAW X6 -->
<svg xmlns="http://www.w3.org/2000/svg" xml:space="preserve" width="739px" height="245px" version="1.1" style="shape-rendering:geometricPrecision; text-rendering:geometricPrecision; image-rendering:optimizeQuality; fill-rule:evenodd; clip-rule:evenodd"
viewBox="0 0 9487 3145"
 xmlns:xlink="http://www.w3.org/1999/xlink">
 <defs>
  <style type="text/css">
   <![CDATA[
    .fil4 {fill:#0098DA}
    .fil2 {fill:#52658C}
    .fil3 {fill:#46587B}
    .fil0 {fill:#52658C;fill-rule:nonzero}
    .fil1 {fill:#494848;fill-rule:nonzero}
   ]]>
  </style>
 </defs>
 <g id="Слой_x0020_1">
  <metadata id="CorelCorpID_0Corel-Layer"/>
  <path class="fil0" d="M582 2777l-99 361 -47 0 -63 -311c0,-2 -1,-8 -3,-17 -1,4 -2,7 -2,10 0,1 -1,6 -3,16l-62 303 -46 0 -97 -361 36 0 78 303c2,6 4,14 6,25 1,-7 3,-16 5,-25l64 -303 46 0 61 300c2,12 4,22 6,30 2,-12 5,-22 7,-30l78 -300 37 0z"/>
  <polygon id="1" class="fil0" points="898,2777 1111,2777 1111,2809 930,2809 930,2937 1111,2937 1111,2969 930,2969 930,3107 1111,3107 1111,3138 898,3138 "/>
  <path id="2" class="fil0" d="M1448 2777l112 0c35,0 61,4 77,13 29,15 43,41 43,78 0,27 -9,48 -28,63 -11,9 -27,16 -49,22 22,2 39,7 50,15 21,14 31,37 31,69 0,43 -16,72 -48,88 -18,9 -44,13 -77,13l-112 0 0 -361zm32 32l0 131 80 0c26,0 45,-4 59,-13 19,-12 28,-31 28,-56 0,-26 -10,-44 -31,-53 -13,-6 -32,-9 -57,-9l-79 0zm0 160l0 138 79 0c29,0 51,-4 65,-12 18,-10 27,-30 27,-58 0,-29 -11,-49 -32,-59 -13,-6 -33,-9 -60,-9l-79 0z"/>
  <path id="3" class="fil0" d="M2146 2777l93 0c30,0 53,2 70,6 35,9 61,32 78,69 12,27 18,58 18,95 0,52 -12,95 -35,129 -16,24 -37,41 -61,50 -20,8 -47,12 -79,12l-85 0 0 -361zm32 32l0 298 54 0c25,0 43,-2 55,-5 30,-8 53,-29 68,-62 12,-27 18,-58 18,-93 0,-55 -15,-93 -44,-116 -12,-10 -26,-16 -41,-19 -11,-2 -26,-3 -46,-3l-64 0z"/>
  <polygon id="4" class="fil0" points="2731,2777 2943,2777 2943,2809 2763,2809 2763,2937 2943,2937 2943,2969 2763,2969 2763,3107 2943,3107 2943,3138 2731,3138 "/>
  <path id="5" class="fil0" d="M3472 2810l0 45c-13,-15 -25,-27 -37,-34 -20,-12 -39,-17 -59,-17 -22,0 -40,8 -55,23 -13,13 -19,28 -19,46 0,21 9,37 27,47 10,6 28,12 55,18 32,7 55,17 70,30 19,16 28,39 28,68 0,34 -12,61 -35,81 -20,17 -45,26 -75,26 -32,0 -62,-14 -92,-41l0 -44c13,17 25,28 35,36 18,12 38,18 59,18 25,0 45,-8 59,-24 12,-13 18,-29 18,-48 0,-20 -6,-35 -19,-48 -10,-9 -28,-17 -54,-22 -34,-7 -59,-17 -75,-28 -22,-16 -32,-39 -32,-69 0,-31 11,-57 34,-76 20,-17 45,-25 74,-25 32,0 64,13 95,38z"/>
  <polygon id="6" class="fil0" points="3808,2777 3841,2777 3841,3138 3808,3138 "/>
  <path id="7" class="fil0" d="M4419 2958l0 136c-11,11 -22,20 -34,28 -22,15 -48,23 -78,23 -41,0 -73,-14 -96,-41 -30,-35 -45,-85 -45,-150 0,-88 28,-144 85,-169 17,-8 36,-11 56,-11 40,0 76,16 107,47l0 39c-16,-18 -31,-31 -45,-38 -20,-11 -41,-16 -63,-16 -24,0 -44,7 -62,21 -30,24 -45,67 -45,129 0,43 8,79 24,107 20,35 50,52 89,52 25,0 50,-9 75,-27l0 -129 32 0z"/>
  <path id="8" class="fil0" d="M5001 2777l0 361 -40 0 -184 -333 0 24 3 309 -32 0 0 -361 49 0 165 299c6,10 10,18 12,22l0 -22 -5 -299 33 0z"/>
  <path class="fil1" d="M651 0c152,0 271,25 357,75 86,50 149,125 189,225 41,100 65,226 74,377 8,151 13,328 13,530 0,204 -4,382 -13,532 -8,150 -33,275 -74,376 -41,100 -104,175 -189,224 -86,49 -204,74 -357,74 -154,0 -275,-26 -361,-77 -87,-51 -151,-127 -194,-227 -43,-100 -69,-225 -80,-376 -10,-150 -16,-325 -16,-526 0,-198 5,-372 16,-523 10,-150 37,-276 80,-379 43,-102 107,-179 194,-230 87,-51 207,-77 361,-77zm0 313c-50,0 -90,16 -119,47 -29,31 -52,82 -67,153 -16,71 -26,163 -31,277 -5,114 -8,253 -8,418 0,165 3,304 8,416 5,113 16,203 31,272 16,69 38,118 67,149 29,30 69,45 119,45 50,0 89,-15 116,-45 27,-30 47,-80 61,-149 14,-69 22,-160 25,-272 3,-113 5,-251 5,-416 0,-165 -2,-304 -5,-418 -3,-114 -11,-206 -25,-277 -14,-71 -34,-122 -61,-153 -27,-31 -66,-47 -116,-47zm820 -272l419 0 394 1396 0 -1396 341 0 0 2332 -410 0 -397 -1396 0 1396 -347 0 0 -2332zm2269 0l0 313 -491 0 0 626 404 0 -31 319 -372 0 0 761 507 0 0 313 -911 0 0 -2332 895 0zm592 0l0 2019 385 0 0 313 -792 0 0 -2332 407 0zm1180 1809l-297 0 -72 523 -382 0 416 -2332 423 0 423 2332 -441 0 -69 -523zm-269 -319l238 0 -116 -836 -122 836zm908 -1490l491 0c144,0 257,13 340,39 82,26 144,64 186,113 42,49 68,110 78,182 10,72 16,153 16,243 0,125 -22,233 -67,323 -45,90 -124,150 -236,179 141,29 239,91 295,184 56,94 83,213 83,356 0,100 -4,194 -11,280 -7,87 -29,162 -66,227 -37,64 -94,115 -173,151 -79,37 -190,55 -334,55l-602 0 0 -2332zm379 2034l114 0c74,0 130,-8 172,-23 41,-16 71,-40 90,-72 19,-32 31,-74 35,-124 4,-50 6,-111 6,-182 0,-65 -2,-121 -6,-169 -4,-48 -15,-87 -32,-117 -17,-30 -42,-53 -77,-67 -34,-15 -83,-22 -147,-22l-154 0 0 776zm0 -1058l104 0c57,0 101,-8 132,-23 32,-16 55,-39 71,-69 16,-30 26,-68 29,-113 3,-45 5,-98 5,-159 0,-59 -2,-108 -5,-148 -3,-40 -12,-71 -27,-94 -15,-23 -36,-40 -65,-51 -28,-10 -68,-16 -118,-16l-126 0 0 673z"/>
  <g id="_929408368">
   <polygon class="fil2" points="7742,1653 7742,2344 9487,1555 9487,865 "/>
   <polygon class="fil3" points="9487,1555 9234,1670 8492,1315 8723,1210 "/>
   <polygon class="fil4" points="7742,767 7742,77 9487,865 9487,1555 "/>
  </g>
  <polygon class="fil2" points="7742,1653 7742,2344 9487,1555 8723,1210 "/>
  <polygon class="fil3" points="9487,1555 9234,1670 8492,1315 8723,1210 "/>
  <polygon class="fil4" points="7742,767 7742,77 9487,865 9487,1555 "/>
  <path class="fil0" d="M582 2777l-99 361 -47 0 -63 -311c0,-2 -1,-8 -3,-17 -1,4 -2,7 -2,10 0,1 -1,6 -3,16l-62 303 -46 0 -97 -361 36 0 78 303c2,6 4,14 6,25 1,-7 3,-16 5,-25l64 -303 46 0 61 300c2,12 4,22 6,30 2,-12 5,-22 7,-30l78 -300 37 0zm316 0l213 0 0 32 -180 0 0 128 180 0 0 32 -180 0 0 138 180 0 0 31 -213 0 0 -361zm550 0l112 0c35,0 61,4 77,13 29,15 43,41 43,78 0,27 -9,48 -28,63 -11,9 -27,16 -49,22 22,2 39,7 50,15 21,14 31,37 31,69 0,43 -16,72 -48,88 -18,9 -44,13 -77,13l-112 0 0 -361zm32 32l0 131 80 0c26,0 45,-4 59,-13 19,-12 28,-31 28,-56 0,-26 -10,-44 -31,-53 -13,-6 -32,-9 -57,-9l-79 0zm0 160l0 138 79 0c29,0 51,-4 65,-12 18,-10 27,-30 27,-58 0,-29 -11,-49 -32,-59 -13,-6 -33,-9 -60,-9l-79 0zm665 -191l93 0c30,0 53,2 70,6 35,9 61,32 78,69 12,27 18,58 18,95 0,52 -12,95 -35,129 -16,24 -37,41 -61,50 -20,8 -47,12 -79,12l-85 0 0 -361zm32 32l0 298 54 0c25,0 43,-2 55,-5 30,-8 53,-29 68,-62 12,-27 18,-58 18,-93 0,-55 -15,-93 -44,-116 -12,-10 -26,-16 -41,-19 -11,-2 -26,-3 -46,-3l-64 0zm553 -32l213 0 0 32 -180 0 0 128 180 0 0 32 -180 0 0 138 180 0 0 31 -213 0 0 -361zm742 33l0 45c-13,-15 -25,-27 -37,-34 -20,-12 -39,-17 -59,-17 -22,0 -40,8 -55,23 -13,13 -19,28 -19,46 0,21 9,37 27,47 10,6 28,12 55,18 32,7 55,17 70,30 19,16 28,39 28,68 0,34 -12,61 -35,81 -20,17 -45,26 -75,26 -32,0 -62,-14 -92,-41l0 -44c13,17 25,28 35,36 18,12 38,18 59,18 25,0 45,-8 59,-24 12,-13 18,-29 18,-48 0,-20 -6,-35 -19,-48 -10,-9 -28,-17 -54,-22 -34,-7 -59,-17 -75,-28 -22,-16 -32,-39 -32,-69 0,-31 11,-57 34,-76 20,-17 45,-25 74,-25 32,0 64,13 95,38zm336 -33l32 0 0 361 -32 0 0 -361zm611 180l0 136c-11,11 -22,20 -34,28 -22,15 -48,23 -78,23 -41,0 -73,-14 -96,-41 -30,-35 -45,-85 -45,-150 0,-88 28,-144 85,-169 17,-8 36,-11 56,-11 40,0 76,16 107,47l0 39c-16,-18 -31,-31 -45,-38 -20,-11 -41,-16 -63,-16 -24,0 -44,7 -62,21 -30,24 -45,67 -45,129 0,43 8,79 24,107 20,35 50,52 89,52 25,0 50,-9 75,-27l0 -129 32 0zm582 -180l0 361 -40 0 -184 -333 0 24 3 309 -32 0 0 -361 49 0 165 299c6,10 10,18 12,22l0 -22 -5 -299 33 0z"/>
 </g>
</svg>
